<?xml version="1.0" encoding="UTF-8" standalone="no"?><!DOCTYPE svg PUBLIC "-//W3C//DTD SVG 1.1//EN" "http://www.w3.org/Graphics/SVG/1.1/DTD/svg11.dtd"><svg xmlns="http://www.w3.org/2000/svg" version="1.1" width="349" height="160"><path fill="none" stroke="#000000" stroke-width="2" stroke-linecap="round" stroke-linejoin="round" d="M 93 31 c -0.14 0.21 -5.86 7.91 -8 12 c -1.41 2.69 -2.31 5.9 -3 9 c -1.99 8.97 -4.5 17.96 -5 27 c -1.16 21.06 -0.82 44.92 0 64 c 0.09 2 1.57 4.66 3 6 c 3.08 2.88 7.96 5.76 12 8 c 1.77 0.98 4.02 1.86 6 2 c 7.21 0.5 15.66 0.77 23 0 c 4.96 -0.52 10.49 -1.93 15 -4 c 7.42 -3.41 14.68 -8.34 22 -13 c 3.89 -2.48 7.6 -5.01 11 -8 c 4.94 -4.35 9.98 -8.9 14 -14 c 5.86 -7.43 11.38 -15.72 16 -24 c 3.3 -5.92 6.02 -12.65 8 -19 c 1.27 -4.05 1.69 -8.63 2 -13 c 0.36 -4.98 0.58 -10.32 0 -15 c -0.37 -2.96 -1.56 -6.41 -3 -9 c -1.73 -3.11 -4.42 -6.26 -7 -9 c -2.72 -2.89 -5.71 -5.84 -9 -8 c -7.21 -4.73 -15.32 -9.59 -23 -13 c -3.88 -1.72 -8.53 -2.17 -13 -3 c -4.74 -0.88 -9.34 -1.88 -14 -2 c -7.91 -0.21 -16.88 -0.74 -24 1 c -6.89 1.69 -14.69 6.03 -21 10 c -5 3.15 -9.72 7.59 -14 12 c -6.75 6.95 -13.35 14.28 -19 22 c -4.27 5.83 -7.63 12.49 -11 19 c -1.65 3.19 -2.91 6.56 -4 10 c -1.26 3.95 -2.54 8.03 -3 12 c -0.52 4.49 -0.53 9.55 0 14 c 0.44 3.63 1.61 7.82 3 11 c 0.78 1.79 2.57 3.57 4 5 c 0.8 0.8 1.94 1.47 3 2 c 2.25 1.12 4.62 2.37 7 3 c 3.8 1 7.97 1.77 12 2 c 7.61 0.44 16.15 1.14 23 0 c 4.26 -0.71 9 -3.64 13 -6 c 3.19 -1.88 6.14 -4.45 9 -7 c 3.2 -2.84 6.41 -5.76 9 -9 c 2.65 -3.32 5.01 -7.2 7 -11 c 1.65 -3.14 2.92 -6.59 4 -10 c 0.92 -2.92 2.15 -6.37 2 -9 c -0.14 -2.44 -1.29 -6.89 -3 -8 c -2.87 -1.85 -9.34 -2.64 -14 -3 c -8.14 -0.63 -17.02 -0.67 -25 0 c -3.64 0.3 -7.52 1.64 -11 3 c -4.1 1.6 -8.15 3.72 -12 6 c -3.51 2.07 -7.11 4.59 -10 7 c -0.85 0.71 -1.16 2.22 -2 3 c -3.31 3.06 -7.75 5.75 -11 9 c -2.28 2.28 -4.28 5.18 -6 8 c -1.92 3.15 -4.2 7.01 -5 10 c -0.36 1.36 0.26 3.97 1 5 c 0.65 0.9 2.64 1.59 4 2 c 1.85 0.55 4.03 1 6 1 c 5.2 0 11.47 0.51 16 -1 c 5.57 -1.86 11.63 -6.35 17 -10 c 2.89 -1.97 5.49 -4.42 8 -7 c 9.69 -9.96 19.14 -19.66 28 -30 c 3.11 -3.63 5.56 -7.81 8 -12 c 2.27 -3.9 4.2 -7.8 6 -12 c 4.34 -10.12 9.27 -20.44 12 -30 c 1.01 -3.55 0.62 -8.91 0 -12 c -0.22 -1.09 -1.88 -2.75 -3 -3 c -3.96 -0.88 -10.05 -1.15 -15 -1 c -5.64 0.18 -11.79 0.51 -17 2 c -5.99 1.71 -12.04 4.92 -18 8 c -13.81 7.14 -26.97 13.81 -40 22 c -13.31 8.36 -25.06 17.56 -38 27 c -3.56 2.59 -6.93 5.14 -10 8 c -1.87 1.75 -4.29 4.22 -5 6 c -0.38 0.94 0.34 3.08 1 4 c 0.8 1.11 2.56 2.33 4 3 c 3.36 1.57 7.28 3.37 11 4 c 9.58 1.64 19.8 2.47 30 3 c 9.48 0.49 18.86 0.95 28 0 c 9.98 -1.03 20.17 -3.44 30 -6 c 5.49 -1.43 10.78 -3.63 16 -6 c 5.88 -2.67 11.82 -5.79 17 -9 c 1.52 -0.94 3.22 -2.59 4 -4 c 0.7 -1.27 1.4 -3.93 1 -5 c -0.39 -1.05 -2.57 -2.23 -4 -3 c -2.82 -1.52 -5.88 -2.96 -9 -4 c -5.91 -1.97 -11.77 -3.56 -18 -5 c -11.58 -2.67 -22.24 -4.84 -34 -7 c -8.91 -1.63 -17.26 -3.39 -26 -4 c -10.3 -0.72 -23.4 -0.89 -31 0 c -1.23 0.14 -2.32 2.63 -3 4 c -0.56 1.13 -1 2.73 -1 4 c 0 2.17 0.29 5.05 1 7 c 0.5 1.38 1.89 2.75 3 4 c 1.57 1.77 3.16 3.65 5 5 c 3.03 2.23 6.58 4.72 10 6 c 4.2 1.58 9.34 2.61 14 3 c 7.16 0.6 14.75 0.44 22 0 c 3.68 -0.22 7.56 -0.91 11 -2 c 3.71 -1.18 7.48 -3.03 11 -5 c 4.85 -2.72 9.87 -5.74 14 -9 c 1.94 -1.53 4.69 -4.59 5 -6 c 0.17 -0.77 -1.89 -2.88 -3 -3 c -6.26 -0.7 -16.2 -0.47 -24 0 c -3 0.18 -6.13 1.04 -9 2 c -3.06 1.02 -7.91 2.91 -9 4 c -0.4 0.4 1.12 2.78 2 3 c 4.44 1.11 11.89 1.9 18 2 c 36.13 0.58 69.88 -0.41 107 0 c 25.34 0.28 48.02 0.61 73 2 c 18.21 1.01 35.04 2.75 53 5 l 27 5"/></svg>